<svg width="100" height="21" viewBox="0 0 100 21" fill="none" xmlns="http://www.w3.org/2000/svg">
<path d="M10.1705 3.37925C10.4884 2.49868 11.7338 2.49868 12.0517 3.37925L13.3673 7.02333C13.5104 7.41964 13.8865 7.68376 14.3079 7.68376H18.3219C19.3159 7.68376 19.7011 8.97671 18.8691 9.52071L15.8093 11.5215C15.4214 11.7752 15.2586 12.2621 15.416 12.698L16.6263 16.0505C16.9523 16.9536 15.942 17.7525 15.1384 17.227L11.6584 14.9514C11.3259 14.734 10.8963 14.734 10.5638 14.9514L7.0838 17.227C6.28021 17.7525 5.26991 16.9536 5.59594 16.0505L6.80625 12.698C6.96363 12.2621 6.80084 11.7752 6.41294 11.5215L3.35309 9.52071C2.52115 8.97671 2.90635 7.68376 3.90037 7.68376H7.91436C8.33571 7.68376 8.71186 7.41964 8.85494 7.02333L10.1705 3.37925Z" fill="#555555"/>
<path d="M29.6149 3.37925C29.9328 2.49868 31.1781 2.49868 31.496 3.37925L32.8116 7.02333C32.9547 7.41964 33.3308 7.68376 33.7522 7.68376H37.7662C38.7602 7.68376 39.1454 8.97671 38.3135 9.52071L35.2536 11.5215C34.8657 11.7752 34.7029 12.2621 34.8603 12.698L36.0706 16.0505C36.3966 16.9536 35.3863 17.7525 34.5828 17.227L31.1027 14.9514C30.7703 14.734 30.3406 14.734 30.0082 14.9514L26.5281 17.227C25.7245 17.7525 24.7142 16.9536 25.0403 16.0505L26.2506 12.698C26.408 12.2621 26.2452 11.7752 25.8573 11.5215L22.7974 9.52071C21.9655 8.97671 22.3507 7.68376 23.3447 7.68376H27.3587C27.78 7.68376 28.1562 7.41964 28.2993 7.02333L29.6149 3.37925Z" fill="#555555"/>
<path d="M49.0592 3.37925C49.3771 2.49868 50.6225 2.49868 50.9404 3.37925L52.256 7.02333C52.399 7.41964 52.7752 7.68376 53.1965 7.68376H57.2105C58.2045 7.68376 58.5897 8.97671 57.7578 9.52071L54.698 11.5215C54.31 11.7752 54.1473 12.2621 54.3046 12.698L55.515 16.0505C55.841 16.9536 54.8307 17.7525 54.0271 17.227L50.5471 14.9514C50.2146 14.734 49.785 14.734 49.4525 14.9514L45.9725 17.227C45.1689 17.7525 44.1586 16.9536 44.4846 16.0505L45.6949 12.698C45.8523 12.2621 45.6895 11.7752 45.3016 11.5215L42.2418 9.52071C41.4098 8.97671 41.795 7.68376 42.789 7.68376H46.803C47.2244 7.68376 47.6005 7.41964 47.7436 7.02333L49.0592 3.37925Z" fill="#555555"/>
<path d="M68.5035 3.37925C68.8214 2.49868 70.0668 2.49868 70.3847 3.37925L71.7003 7.02333C71.8434 7.41964 72.2195 7.68376 72.6409 7.68376H76.6549C77.6489 7.68376 78.0341 8.97671 77.2021 9.52071L74.1423 11.5215C73.7544 11.7752 73.5916 12.2621 73.749 12.698L74.9593 16.0505C75.2853 16.9536 74.275 17.7525 73.4714 17.227L69.9914 14.9514C69.6589 14.734 69.2293 14.734 68.8968 14.9514L65.4168 17.227C64.6132 17.7525 63.6029 16.9536 63.9289 16.0505L65.1393 12.698C65.2966 12.2621 65.1339 11.7752 64.7459 11.5215L61.6861 9.52071C60.8542 8.97671 61.2394 7.68376 62.2334 7.68376H66.2474C66.6687 7.68376 67.0449 7.41964 67.1879 7.02333L68.5035 3.37925Z" fill="#555555"/>
<path d="M87.9479 3.37925C88.2658 2.49868 89.5111 2.49868 89.829 3.37925L91.1446 7.02333C91.2877 7.41964 91.6639 7.68376 92.0852 7.68376H96.0992C97.0932 7.68376 97.4784 8.97671 96.6465 9.52071L93.5866 11.5215C93.1987 11.7752 93.0359 12.2621 93.1933 12.698L94.4036 16.0505C94.7297 16.9536 93.7194 17.7525 92.9158 17.227L89.4357 14.9514C89.1033 14.734 88.6736 14.734 88.3412 14.9514L84.8611 17.227C84.0576 17.7525 83.0473 16.9536 83.3733 16.0505L84.5836 12.698C84.741 12.2621 84.5782 11.7752 84.1903 11.5215L81.1304 9.52071C80.2985 8.97671 80.6837 7.68376 81.6777 7.68376H85.6917C86.1131 7.68376 86.4892 7.41964 86.6323 7.02333L87.9479 3.37925Z" fill="#555555"/>
</svg>
